<?xml version="1.0" encoding="UTF-8"?>
<svg width="96" height="96" viewBox="0 0 96 96" xmlns="http://www.w3.org/2000/svg">
  <defs>
    <linearGradient id="bgGradient" x1="20%" y1="0%" x2="80%" y2="100%">
      <stop offset="0%" stop-color="#1d4ed8"/>
      <stop offset="100%" stop-color="#0ea5e9"/>
    </linearGradient>
    <linearGradient id="waveGradient" x1="0%" y1="0%" x2="100%" y2="100%">
      <stop offset="0%" stop-color="#f8fafc" stop-opacity="0.95"/>
      <stop offset="100%" stop-color="#e0f2fe" stop-opacity="0.75"/>
    </linearGradient>
    <linearGradient id="borderGradient" x1="0%" y1="0%" x2="100%" y2="100%">
      <stop offset="0%" stop-color="#60a5fa" stop-opacity="0.9"/>
      <stop offset="100%" stop-color="#1e40af" stop-opacity="0.9"/>
    </linearGradient>
  </defs>
  <rect x="8" y="8" width="80" height="80" rx="22" fill="url(#bgGradient)"/>
  <path d="M20 56c10-18 24-20 34-10s20 12 22 8" fill="none" stroke="url(#waveGradient)" stroke-width="7" stroke-linecap="round" stroke-linejoin="round" opacity="0.95"/>
  <path d="M24 34c6 8 16 12 26 6s18-6 22 4" fill="none" stroke="#bfdbfe" stroke-width="5" stroke-linecap="round" stroke-linejoin="round" opacity="0.9"/>
  <circle cx="64" cy="30" r="6" fill="#f8fafc" opacity="0.95"/>
  <circle cx="64" cy="30" r="4" fill="#38bdf8"/>
  <path d="M30 74c8-8 18-12 28-8" fill="none" stroke="#0ea5e9" stroke-width="4" stroke-linecap="round" stroke-linejoin="round" opacity="0.8"/>
  <rect x="8" y="8" width="80" height="80" rx="22" fill="none" stroke="url(#borderGradient)" stroke-width="2" opacity="0.8"/>
</svg>
