<?xml version="1.0" encoding="UTF-8"?>
<svg width="24" height="24" viewBox="0 0 24 24" xmlns="http://www.w3.org/2000/svg">
  <path d="M3 6a2 2 0 0 1 2-2h4l2 2h8a2 2 0 0 1 2 2v1H3z" fill="#fbbf24"/>
  <path d="M3 9h18v9a2 2 0 0 1-2 2H5a2 2 0 0 1-2-2z" fill="#f59e0b"/>
  <path d="M5 10h14v6a1 1 0 0 1-1 1H6a1 1 0 0 1-1-1z" fill="#fde68a" opacity="0.65"/>
  <path d="M9 4h2l2 2H9z" fill="#fcd34d"/>
  <rect x="3" y="6" width="18" height="12" rx="2" ry="2" fill="none" stroke="#d97706" stroke-width="1.2" opacity="0.6"/>
</svg>
