<?xml version="1.0" encoding="UTF-8"?>
<svg width="96" height="96" viewBox="0 0 96 96" xmlns="http://www.w3.org/2000/svg">
  <defs>
    <linearGradient id="projectGradient" x1="0%" y1="0%" x2="100%" y2="100%">
      <stop offset="0%" stop-color="#047857"/>
      <stop offset="100%" stop-color="#22c55e"/>
    </linearGradient>
    <linearGradient id="accentGradient" x1="0%" y1="0%" x2="0%" y2="100%">
      <stop offset="0%" stop-color="#bbf7d0"/>
      <stop offset="100%" stop-color="#86efac"/>
    </linearGradient>
    <linearGradient id="shadowGradient" x1="0%" y1="0%" x2="100%" y2="100%">
      <stop offset="0%" stop-color="#0f766e" stop-opacity="0.45"/>
      <stop offset="100%" stop-color="#0f766e" stop-opacity="0.05"/>
    </linearGradient>
  </defs>
  <rect x="10" y="10" width="76" height="76" rx="20" fill="url(#projectGradient)"/>
  <path d="M24 66h48v6H24z" fill="#0f172a" opacity="0.2"/>
  <g transform="translate(20 22)">
    <path d="M12 0h20l12 12v32a6 6 0 0 1-6 6H12a6 6 0 0 1-6-6V6a6 6 0 0 1 6-6z" fill="url(#accentGradient)"/>
    <path d="M32 0v12h12z" fill="#ecfdf5"/>
    <path d="M12 18h16v4H12z" fill="#047857" opacity="0.85"/>
    <path d="M12 28h24v4H12z" fill="#0f766e" opacity="0.9"/>
    <path d="M12 38h18v4H12z" fill="#047857" opacity="0.85"/>
  </g>
  <path d="M24 24l32 32" stroke="url(#shadowGradient)" stroke-width="6" stroke-linecap="round" opacity="0.4"/>
  <rect x="10" y="10" width="76" height="76" rx="20" fill="none" stroke="#0f766e" stroke-opacity="0.5" stroke-width="2"/>
</svg>
